# Blender 4.2.3 LTS
# www.blender.org
mtllib ledge.mtl
o Cube
v 7.483854 3.738456 -6.789839
v 7.483854 -1.000000 -6.789839
v 7.483854 -1.000000 1.000000
v -1.000000 3.738456 -6.789839
v -1.000000 -1.000000 -6.789839
v -1.000000 -1.000000 1.000000
v 7.483854 3.738456 -6.789839
v 7.483854 -1.000000 1.000000
v -1.000000 -1.000000 1.000000
v -1.000000 3.738456 -6.789839
vn -1.0000 -0.0000 -0.0000
vn -0.0000 1.0000 -0.0000
vn -0.0000 -1.0000 -0.0000
vn -0.0000 -0.0000 -1.0000
vn -0.0000 0.8544 0.5197
vn 1.0000 -0.0000 -0.0000
vt 0.375000 0.000000
vt 0.625000 0.250000
vt 0.375000 0.250000
vt 0.625000 0.500000
vt 0.875000 0.500000
vt 0.125000 0.500000
vt 0.375000 0.500000
vt 0.375000 0.750000
vt 0.125000 0.750000
vt 0.375000 1.000000
vt 0.625000 0.750000
vt 0.625000 1.000000
s 0
usemtl Material
f 6/1/1 9/1/1 10/2/1 4/2/1 5/3/1
f 1/4/2 4/5/2 10/5/2 7/4/2
f 5/6/3 2/7/3 3/8/3 6/9/3
f 3/8/2 8/8/2 9/10/2 6/10/2
f 5/3/4 4/2/4 1/4/4 2/7/4
f 7/11/5 10/12/5 9/10/5 8/8/5
f 2/7/6 1/4/6 7/4/6 8/8/6 3/8/6
